<svg xmlns="http://www.w3.org/2000/svg" viewBox="0 0 1200 675" width="1200" height="675" role="img"><defs><linearGradient id="bg" x1="0" y1="0" x2="1" y2="1"><stop offset="0" stop-color="#1d0a38"/><stop offset="0.55" stop-color="#140628"/><stop offset="1" stop-color="#04010c"/></linearGradient><linearGradient id="sungrad" x1="0" y1="0" x2="0" y2="1"><stop offset="0" stop-color="#ff6ec7"/><stop offset="0.5" stop-color="#9d4edd"/><stop offset="1" stop-color="#9d4edd"/></linearGradient><radialGradient id="bloom" cx="0.5" cy="0.45" r="0.55"><stop offset="0" stop-color="#9d4edd" stop-opacity="0.34"/><stop offset="1" stop-color="#9d4edd" stop-opacity="0"/></radialGradient><radialGradient id="vignette" cx="0.5" cy="0.5" r="0.78"><stop offset="0.45" stop-color="#04010c" stop-opacity="0"/><stop offset="1" stop-color="#04010c" stop-opacity="0.82"/></radialGradient><pattern id="scan" width="4" height="4" patternUnits="userSpaceOnUse"><rect width="4" height="1.4" fill="#000000" opacity="0.34"/></pattern></defs><rect width="1200" height="675" fill="url(#bg)"/><line x1="0" y1="415" x2="1200" y2="415" stroke="#ff6ec7" stroke-width="2" opacity="0.5"/><line x1="600" y1="415" x2="-1480" y2="675" stroke="#ff6ec7" stroke-width="1.4" opacity="0.22"/><line x1="600" y1="415" x2="-1350" y2="675" stroke="#ff6ec7" stroke-width="1.4" opacity="0.22"/><line x1="600" y1="415" x2="-1220" y2="675" stroke="#ff6ec7" stroke-width="1.4" opacity="0.22"/><line x1="600" y1="415" x2="-1090" y2="675" stroke="#ff6ec7" stroke-width="1.4" opacity="0.22"/><line x1="600" y1="415" x2="-960" y2="675" stroke="#ff6ec7" stroke-width="1.4" opacity="0.22"/><line x1="600" y1="415" x2="-830" y2="675" stroke="#ff6ec7" stroke-width="1.4" opacity="0.22"/><line x1="600" y1="415" x2="-700" y2="675" stroke="#ff6ec7" stroke-width="1.4" opacity="0.22"/><line x1="600" y1="415" x2="-570" y2="675" stroke="#ff6ec7" stroke-width="1.4" opacity="0.22"/><line x1="600" y1="415" x2="-440" y2="675" stroke="#ff6ec7" stroke-width="1.4" opacity="0.22"/><line x1="600" y1="415" x2="-310" y2="675" stroke="#ff6ec7" stroke-width="1.4" opacity="0.22"/><line x1="600" y1="415" x2="-180" y2="675" stroke="#ff6ec7" stroke-width="1.4" opacity="0.22"/><line x1="600" y1="415" x2="-50" y2="675" stroke="#ff6ec7" stroke-width="1.4" opacity="0.22"/><line x1="600" y1="415" x2="80" y2="675" stroke="#ff6ec7" stroke-width="1.4" opacity="0.22"/><line x1="600" y1="415" x2="210" y2="675" stroke="#ff6ec7" stroke-width="1.4" opacity="0.22"/><line x1="600" y1="415" x2="340" y2="675" stroke="#ff6ec7" stroke-width="1.4" opacity="0.22"/><line x1="600" y1="415" x2="470" y2="675" stroke="#ff6ec7" stroke-width="1.4" opacity="0.22"/><line x1="600" y1="415" x2="600" y2="675" stroke="#ff6ec7" stroke-width="1.4" opacity="0.22"/><line x1="600" y1="415" x2="730" y2="675" stroke="#ff6ec7" stroke-width="1.4" opacity="0.22"/><line x1="600" y1="415" x2="860" y2="675" stroke="#ff6ec7" stroke-width="1.4" opacity="0.22"/><line x1="600" y1="415" x2="990" y2="675" stroke="#ff6ec7" stroke-width="1.4" opacity="0.22"/><line x1="600" y1="415" x2="1120" y2="675" stroke="#ff6ec7" stroke-width="1.4" opacity="0.22"/><line x1="600" y1="415" x2="1250" y2="675" stroke="#ff6ec7" stroke-width="1.4" opacity="0.22"/><line x1="600" y1="415" x2="1380" y2="675" stroke="#ff6ec7" stroke-width="1.4" opacity="0.22"/><line x1="600" y1="415" x2="1510" y2="675" stroke="#ff6ec7" stroke-width="1.4" opacity="0.22"/><line x1="600" y1="415" x2="1640" y2="675" stroke="#ff6ec7" stroke-width="1.4" opacity="0.22"/><line x1="600" y1="415" x2="1770" y2="675" stroke="#ff6ec7" stroke-width="1.4" opacity="0.22"/><line x1="600" y1="415" x2="1900" y2="675" stroke="#ff6ec7" stroke-width="1.4" opacity="0.22"/><line x1="600" y1="415" x2="2030" y2="675" stroke="#ff6ec7" stroke-width="1.4" opacity="0.22"/><line x1="600" y1="415" x2="2160" y2="675" stroke="#ff6ec7" stroke-width="1.4" opacity="0.22"/><line x1="600" y1="415" x2="2290" y2="675" stroke="#ff6ec7" stroke-width="1.4" opacity="0.22"/><line x1="600" y1="415" x2="2420" y2="675" stroke="#ff6ec7" stroke-width="1.4" opacity="0.22"/><line x1="600" y1="415" x2="2550" y2="675" stroke="#ff6ec7" stroke-width="1.4" opacity="0.22"/><line x1="600" y1="415" x2="2680" y2="675" stroke="#ff6ec7" stroke-width="1.4" opacity="0.22"/><line x1="0" y1="418.5" x2="1200" y2="418.5" stroke="#ff6ec7" stroke-width="1.4" opacity="0.1"/><line x1="0" y1="423.8" x2="1200" y2="423.8" stroke="#ff6ec7" stroke-width="1.4" opacity="0.1"/><line x1="0" y1="431.6" x2="1200" y2="431.6" stroke="#ff6ec7" stroke-width="1.4" opacity="0.2"/><line x1="0" y1="443.4" x2="1200" y2="443.4" stroke="#ff6ec7" stroke-width="1.4" opacity="0.2"/><line x1="0" y1="461.2" x2="1200" y2="461.2" stroke="#ff6ec7" stroke-width="1.4" opacity="0.2"/><line x1="0" y1="487.7" x2="1200" y2="487.7" stroke="#ff6ec7" stroke-width="1.4" opacity="0.2"/><line x1="0" y1="527.6" x2="1200" y2="527.6" stroke="#ff6ec7" stroke-width="1.4" opacity="0.2"/><line x1="0" y1="587.4" x2="1200" y2="587.4" stroke="#ff6ec7" stroke-width="1.4" opacity="0.3"/><rect width="1200" height="675" fill="url(#bloom)"/><g transform="translate(-74 -18) translate(600 337.5) scale(0.86) translate(-600 -337.5)"><mask id="sun"><circle cx="600" cy="320" r="158" fill="#fff"/><rect x="432" y="334" width="336" height="4" fill="#000"/><rect x="432" y="351" width="336" height="7.4" fill="#000"/><rect x="432" y="371.4" width="336" height="10.8" fill="#000"/><rect x="432" y="395.2" width="336" height="14.2" fill="#000"/><rect x="432" y="422.4" width="336" height="17.6" fill="#000"/><rect x="432" y="453" width="336" height="21" fill="#000"/></mask><circle cx="600" cy="320" r="184" fill="#9d4edd" opacity="0.12"/><circle cx="600" cy="320" r="158" fill="url(#sungrad)" mask="url(#sun)"/><path d="M405 285.6 A198 198 0 0 1 795 285.6" fill="none" stroke="#ff6ec7" stroke-width="12.8" stroke-linecap="round" stroke-linejoin="round" opacity="0.1"/><path d="M405 285.6 A198 198 0 0 1 795 285.6" fill="none" stroke="#ff6ec7" stroke-width="7.6" stroke-linecap="round" stroke-linejoin="round" opacity="0.3"/><path d="M405 285.6 A198 198 0 0 1 795 285.6" fill="none" stroke="#ff6ec7" stroke-width="4" stroke-linecap="round" stroke-linejoin="round" opacity="0.8"/></g><rect width="1200" height="675" fill="url(#vignette)"/><rect width="1200" height="675" fill="url(#scan)"/><g opacity="0.22" transform="translate(1116 596)"><circle r="23" fill="none" stroke="#ff6ec7" stroke-width="2.5"/><circle r="14" fill="none" stroke="#ff6ec7" stroke-width="1.8" opacity="0.6"/><circle r="4.5" fill="#9d4edd"/></g></svg>