<svg xmlns="http://www.w3.org/2000/svg" viewBox="0 0 1200 675" width="1200" height="675" role="img"><defs><linearGradient id="bg" x1="0" y1="0" x2="1" y2="1"><stop offset="0" stop-color="#1d0a38"/><stop offset="0.55" stop-color="#140628"/><stop offset="1" stop-color="#04010c"/></linearGradient><linearGradient id="sungrad" x1="0" y1="0" x2="0" y2="1"><stop offset="0" stop-color="#ff6ec7"/><stop offset="0.5" stop-color="#9d4edd"/><stop offset="1" stop-color="#9d4edd"/></linearGradient><radialGradient id="bloom" cx="0.5" cy="0.45" r="0.55"><stop offset="0" stop-color="#9d4edd" stop-opacity="0.34"/><stop offset="1" stop-color="#9d4edd" stop-opacity="0"/></radialGradient><radialGradient id="vignette" cx="0.5" cy="0.5" r="0.78"><stop offset="0.45" stop-color="#04010c" stop-opacity="0"/><stop offset="1" stop-color="#04010c" stop-opacity="0.82"/></radialGradient><pattern id="scan" width="4" height="4" patternUnits="userSpaceOnUse"><rect width="4" height="1.4" fill="#000000" opacity="0.34"/></pattern></defs><rect width="1200" height="675" fill="url(#bg)"/><circle cx="20" cy="20" r="2.6" fill="#ff6ec7" opacity="0.2"/><circle cx="61" cy="20" r="2.6" fill="#ff6ec7" opacity="0.2"/><circle cx="102" cy="20" r="2.5" fill="#ff6ec7" opacity="0.2"/><circle cx="143" cy="20" r="2.5" fill="#ff6ec7" opacity="0.2"/><circle cx="184" cy="20" r="2.5" fill="#ff6ec7" opacity="0.2"/><circle cx="225" cy="20" r="2.4" fill="#ff6ec7" opacity="0.1"/><circle cx="266" cy="20" r="2.4" fill="#ff6ec7" opacity="0.1"/><circle cx="307" cy="20" r="2.3" fill="#ff6ec7" opacity="0.1"/><circle cx="348" cy="20" r="2.3" fill="#ff6ec7" opacity="0.1"/><circle cx="389" cy="20" r="2.2" fill="#ff6ec7" opacity="0.1"/><circle cx="430" cy="20" r="2.2" fill="#ff6ec7" opacity="0.1"/><circle cx="471" cy="20" r="2.2" fill="#ff6ec7" opacity="0.1"/><circle cx="512" cy="20" r="2.1" fill="#ff6ec7" opacity="0.1"/><circle cx="553" cy="20" r="2.1" fill="#ff6ec7" opacity="0.1"/><circle cx="594" cy="20" r="2" fill="#ff6ec7" opacity="0.1"/><circle cx="635" cy="20" r="2" fill="#ff6ec7" opacity="0.1"/><circle cx="676" cy="20" r="2" fill="#ff6ec7" opacity="0.1"/><circle cx="717" cy="20" r="1.9" fill="#ff6ec7" opacity="0.1"/><circle cx="758" cy="20" r="1.9" fill="#ff6ec7" opacity="0.1"/><circle cx="799" cy="20" r="1.8" fill="#ff6ec7" opacity="0.1"/><circle cx="840" cy="20" r="1.8" fill="#ff6ec7" opacity="0.1"/><circle cx="881" cy="20" r="1.8" fill="#ff6ec7" opacity="0.1"/><circle cx="922" cy="20" r="1.7" fill="#ff6ec7" opacity="0"/><circle cx="963" cy="20" r="1.7" fill="#ff6ec7" opacity="0"/><circle cx="20" cy="61" r="2.7" fill="#ff6ec7" opacity="0.2"/><circle cx="61" cy="61" r="2.6" fill="#ff6ec7" opacity="0.2"/><circle cx="102" cy="61" r="2.6" fill="#ff6ec7" opacity="0.2"/><circle cx="143" cy="61" r="2.6" fill="#ff6ec7" opacity="0.2"/><circle cx="184" cy="61" r="2.5" fill="#ff6ec7" opacity="0.2"/><circle cx="225" cy="61" r="2.5" fill="#ff6ec7" opacity="0.2"/><circle cx="266" cy="61" r="2.4" fill="#ff6ec7" opacity="0.1"/><circle cx="307" cy="61" r="2.4" fill="#ff6ec7" opacity="0.1"/><circle cx="348" cy="61" r="2.3" fill="#ff6ec7" opacity="0.1"/><circle cx="389" cy="61" r="2.3" fill="#ff6ec7" opacity="0.1"/><circle cx="430" cy="61" r="2.3" fill="#ff6ec7" opacity="0.1"/><circle cx="471" cy="61" r="2.2" fill="#ff6ec7" opacity="0.1"/><circle cx="512" cy="61" r="2.2" fill="#ff6ec7" opacity="0.1"/><circle cx="553" cy="61" r="2.1" fill="#ff6ec7" opacity="0.1"/><circle cx="594" cy="61" r="2.1" fill="#ff6ec7" opacity="0.1"/><circle cx="635" cy="61" r="2.1" fill="#ff6ec7" opacity="0.1"/><circle cx="676" cy="61" r="2" fill="#ff6ec7" opacity="0.1"/><circle cx="717" cy="61" r="2" fill="#ff6ec7" opacity="0.1"/><circle cx="758" cy="61" r="1.9" fill="#ff6ec7" opacity="0.1"/><circle cx="799" cy="61" r="1.9" fill="#ff6ec7" opacity="0.1"/><circle cx="840" cy="61" r="1.9" fill="#ff6ec7" opacity="0.1"/><circle cx="881" cy="61" r="1.8" fill="#ff6ec7" opacity="0.1"/><circle cx="922" cy="61" r="1.8" fill="#ff6ec7" opacity="0.1"/><circle cx="963" cy="61" r="1.7" fill="#ff6ec7" opacity="0"/><circle cx="1004" cy="61" r="1.7" fill="#ff6ec7" opacity="0"/><circle cx="20" cy="102" r="2.7" fill="#ff6ec7" opacity="0.2"/><circle cx="61" cy="102" r="2.7" fill="#ff6ec7" opacity="0.2"/><circle cx="102" cy="102" r="2.7" fill="#ff6ec7" opacity="0.2"/><circle cx="143" cy="102" r="2.6" fill="#ff6ec7" opacity="0.2"/><circle cx="184" cy="102" r="2.6" fill="#ff6ec7" opacity="0.2"/><circle cx="225" cy="102" r="2.5" fill="#ff6ec7" opacity="0.2"/><circle cx="266" cy="102" r="2.5" fill="#ff6ec7" opacity="0.2"/><circle cx="307" cy="102" r="2.5" fill="#ff6ec7" opacity="0.2"/><circle cx="348" cy="102" r="2.4" fill="#ff6ec7" opacity="0.1"/><circle cx="389" cy="102" r="2.4" fill="#ff6ec7" opacity="0.1"/><circle cx="430" cy="102" r="2.3" fill="#ff6ec7" opacity="0.1"/><circle cx="471" cy="102" r="2.3" fill="#ff6ec7" opacity="0.1"/><circle cx="512" cy="102" r="2.2" fill="#ff6ec7" opacity="0.1"/><circle cx="553" cy="102" r="2.2" fill="#ff6ec7" opacity="0.1"/><circle cx="594" cy="102" r="2.2" fill="#ff6ec7" opacity="0.1"/><circle cx="635" cy="102" r="2.1" fill="#ff6ec7" opacity="0.1"/><circle cx="676" cy="102" r="2.1" fill="#ff6ec7" opacity="0.1"/><circle cx="717" cy="102" r="2" fill="#ff6ec7" opacity="0.1"/><circle cx="758" cy="102" r="2" fill="#ff6ec7" opacity="0.1"/><circle cx="799" cy="102" r="2" fill="#ff6ec7" opacity="0.1"/><circle cx="840" cy="102" r="1.9" fill="#ff6ec7" opacity="0.1"/><circle cx="881" cy="102" r="1.9" fill="#ff6ec7" opacity="0.1"/><circle cx="922" cy="102" r="1.8" fill="#ff6ec7" opacity="0.1"/><circle cx="963" cy="102" r="1.8" fill="#ff6ec7" opacity="0.1"/><circle cx="1004" cy="102" r="1.7" fill="#ff6ec7" opacity="0.1"/><circle cx="1045" cy="102" r="1.7" fill="#ff6ec7" opacity="0"/><circle cx="1086" cy="102" r="1.7" fill="#ff6ec7" opacity="0"/><circle cx="20" cy="143" r="2.8" fill="#ff6ec7" opacity="0.2"/><circle cx="61" cy="143" r="2.8" fill="#ff6ec7" opacity="0.2"/><circle cx="102" cy="143" r="2.7" fill="#ff6ec7" opacity="0.2"/><circle cx="143" cy="143" r="2.7" fill="#ff6ec7" opacity="0.2"/><circle cx="184" cy="143" r="2.6" fill="#ff6ec7" opacity="0.2"/><circle cx="225" cy="143" r="2.6" fill="#ff6ec7" opacity="0.2"/><circle cx="266" cy="143" r="2.6" fill="#ff6ec7" opacity="0.2"/><circle cx="307" cy="143" r="2.5" fill="#ff6ec7" opacity="0.2"/><circle cx="348" cy="143" r="2.5" fill="#ff6ec7" opacity="0.2"/><circle cx="389" cy="143" r="2.4" fill="#ff6ec7" opacity="0.1"/><circle cx="430" cy="143" r="2.4" fill="#ff6ec7" opacity="0.1"/><circle cx="471" cy="143" r="2.3" fill="#ff6ec7" opacity="0.1"/><circle cx="512" cy="143" r="2.3" fill="#ff6ec7" opacity="0.1"/><circle cx="553" cy="143" r="2.3" fill="#ff6ec7" opacity="0.1"/><circle cx="594" cy="143" r="2.2" fill="#ff6ec7" opacity="0.1"/><circle cx="635" cy="143" r="2.2" fill="#ff6ec7" opacity="0.1"/><circle cx="676" cy="143" r="2.1" fill="#ff6ec7" opacity="0.1"/><circle cx="717" cy="143" r="2.1" fill="#ff6ec7" opacity="0.1"/><circle cx="758" cy="143" r="2.1" fill="#ff6ec7" opacity="0.1"/><circle cx="799" cy="143" r="2" fill="#ff6ec7" opacity="0.1"/><circle cx="840" cy="143" r="2" fill="#ff6ec7" opacity="0.1"/><circle cx="881" cy="143" r="1.9" fill="#ff6ec7" opacity="0.1"/><circle cx="922" cy="143" r="1.9" fill="#ff6ec7" opacity="0.1"/><circle cx="963" cy="143" r="1.8" fill="#ff6ec7" opacity="0.1"/><circle cx="1004" cy="143" r="1.8" fill="#ff6ec7" opacity="0.1"/><circle cx="1045" cy="143" r="1.8" fill="#ff6ec7" opacity="0.1"/><circle cx="1086" cy="143" r="1.7" fill="#ff6ec7" opacity="0"/><circle cx="1127" cy="143" r="1.7" fill="#ff6ec7" opacity="0"/><circle cx="20" cy="184" r="2.9" fill="#ff6ec7" opacity="0.2"/><circle cx="61" cy="184" r="2.8" fill="#ff6ec7" opacity="0.2"/><circle cx="102" cy="184" r="2.8" fill="#ff6ec7" opacity="0.2"/><circle cx="143" cy="184" r="2.7" fill="#ff6ec7" opacity="0.2"/><circle cx="184" cy="184" r="2.7" fill="#ff6ec7" opacity="0.2"/><circle cx="225" cy="184" r="2.7" fill="#ff6ec7" opacity="0.2"/><circle cx="266" cy="184" r="2.6" fill="#ff6ec7" opacity="0.2"/><circle cx="307" cy="184" r="2.6" fill="#ff6ec7" opacity="0.2"/><circle cx="348" cy="184" r="2.5" fill="#ff6ec7" opacity="0.2"/><circle cx="389" cy="184" r="2.5" fill="#ff6ec7" opacity="0.2"/><circle cx="430" cy="184" r="2.4" fill="#ff6ec7" opacity="0.2"/><circle cx="471" cy="184" r="2.4" fill="#ff6ec7" opacity="0.1"/><circle cx="512" cy="184" r="2.4" fill="#ff6ec7" opacity="0.1"/><circle cx="553" cy="184" r="2.3" fill="#ff6ec7" opacity="0.1"/><circle cx="594" cy="184" r="2.3" fill="#ff6ec7" opacity="0.1"/><circle cx="635" cy="184" r="2.2" fill="#ff6ec7" opacity="0.1"/><circle cx="676" cy="184" r="2.2" fill="#ff6ec7" opacity="0.1"/><circle cx="717" cy="184" r="2.2" fill="#ff6ec7" opacity="0.1"/><circle cx="758" cy="184" r="2.1" fill="#ff6ec7" opacity="0.1"/><circle cx="799" cy="184" r="2.1" fill="#ff6ec7" opacity="0.1"/><circle cx="840" cy="184" r="2" fill="#ff6ec7" opacity="0.1"/><circle cx="881" cy="184" r="2" fill="#ff6ec7" opacity="0.1"/><circle cx="922" cy="184" r="2" fill="#ff6ec7" opacity="0.1"/><circle cx="963" cy="184" r="1.9" fill="#ff6ec7" opacity="0.1"/><circle cx="1004" cy="184" r="1.9" fill="#ff6ec7" opacity="0.1"/><circle cx="1045" cy="184" r="1.8" fill="#ff6ec7" opacity="0.1"/><circle cx="1086" cy="184" r="1.8" fill="#ff6ec7" opacity="0.1"/><circle cx="1127" cy="184" r="1.7" fill="#ff6ec7" opacity="0"/><circle cx="1168" cy="184" r="1.7" fill="#ff6ec7" opacity="0"/><circle cx="20" cy="225" r="2.9" fill="#ff6ec7" opacity="0.2"/><circle cx="61" cy="225" r="2.9" fill="#ff6ec7" opacity="0.2"/><circle cx="102" cy="225" r="2.8" fill="#ff6ec7" opacity="0.2"/><circle cx="143" cy="225" r="2.8" fill="#ff6ec7" opacity="0.2"/><circle cx="184" cy="225" r="2.8" fill="#ff6ec7" opacity="0.2"/><circle cx="225" cy="225" r="2.7" fill="#ff6ec7" opacity="0.2"/><circle cx="266" cy="225" r="2.7" fill="#ff6ec7" opacity="0.2"/><circle cx="307" cy="225" r="2.6" fill="#ff6ec7" opacity="0.2"/><circle cx="348" cy="225" r="2.6" fill="#ff6ec7" opacity="0.2"/><circle cx="389" cy="225" r="2.5" fill="#ff6ec7" opacity="0.2"/><circle cx="430" cy="225" r="2.5" fill="#ff6ec7" opacity="0.2"/><circle cx="471" cy="225" r="2.5" fill="#ff6ec7" opacity="0.2"/><circle cx="512" cy="225" r="2.4" fill="#ff6ec7" opacity="0.1"/><circle cx="553" cy="225" r="2.4" fill="#ff6ec7" opacity="0.1"/><circle cx="594" cy="225" r="2.3" fill="#ff6ec7" opacity="0.1"/><circle cx="635" cy="225" r="2.3" fill="#ff6ec7" opacity="0.1"/><circle cx="676" cy="225" r="2.3" fill="#ff6ec7" opacity="0.1"/><circle cx="717" cy="225" r="2.2" fill="#ff6ec7" opacity="0.1"/><circle cx="758" cy="225" r="2.2" fill="#ff6ec7" opacity="0.1"/><circle cx="799" cy="225" r="2.1" fill="#ff6ec7" opacity="0.1"/><circle cx="840" cy="225" r="2.1" fill="#ff6ec7" opacity="0.1"/><circle cx="881" cy="225" r="2.1" fill="#ff6ec7" opacity="0.1"/><circle cx="922" cy="225" r="2" fill="#ff6ec7" opacity="0.1"/><circle cx="963" cy="225" r="2" fill="#ff6ec7" opacity="0.1"/><circle cx="1004" cy="225" r="1.9" fill="#ff6ec7" opacity="0.1"/><circle cx="1045" cy="225" r="1.9" fill="#ff6ec7" opacity="0.1"/><circle cx="1086" cy="225" r="1.8" fill="#ff6ec7" opacity="0.1"/><circle cx="1127" cy="225" r="1.8" fill="#ff6ec7" opacity="0.1"/><circle cx="1168" cy="225" r="1.8" fill="#ff6ec7" opacity="0.1"/><circle cx="1209" cy="225" r="1.7" fill="#ff6ec7" opacity="0"/><circle cx="20" cy="266" r="3" fill="#ff6ec7" opacity="0.2"/><circle cx="61" cy="266" r="2.9" fill="#ff6ec7" opacity="0.2"/><circle cx="102" cy="266" r="2.9" fill="#ff6ec7" opacity="0.2"/><circle cx="143" cy="266" r="2.9" fill="#ff6ec7" opacity="0.2"/><circle cx="184" cy="266" r="2.8" fill="#ff6ec7" opacity="0.2"/><circle cx="225" cy="266" r="2.8" fill="#ff6ec7" opacity="0.2"/><circle cx="266" cy="266" r="2.7" fill="#ff6ec7" opacity="0.2"/><circle cx="307" cy="266" r="2.7" fill="#ff6ec7" opacity="0.2"/><circle cx="348" cy="266" r="2.6" fill="#ff6ec7" opacity="0.2"/><circle cx="389" cy="266" r="2.6" fill="#ff6ec7" opacity="0.2"/><circle cx="430" cy="266" r="2.6" fill="#ff6ec7" opacity="0.2"/><circle cx="471" cy="266" r="2.5" fill="#ff6ec7" opacity="0.2"/><circle cx="512" cy="266" r="2.5" fill="#ff6ec7" opacity="0.2"/><circle cx="553" cy="266" r="2.4" fill="#ff6ec7" opacity="0.2"/><circle cx="594" cy="266" r="2.4" fill="#ff6ec7" opacity="0.1"/><circle cx="635" cy="266" r="2.4" fill="#ff6ec7" opacity="0.1"/><circle cx="676" cy="266" r="2.3" fill="#ff6ec7" opacity="0.1"/><circle cx="717" cy="266" r="2.3" fill="#ff6ec7" opacity="0.1"/><circle cx="758" cy="266" r="2.2" fill="#ff6ec7" opacity="0.1"/><circle cx="799" cy="266" r="2.2" fill="#ff6ec7" opacity="0.1"/><circle cx="840" cy="266" r="2.2" fill="#ff6ec7" opacity="0.1"/><circle cx="881" cy="266" r="2.1" fill="#ff6ec7" opacity="0.1"/><circle cx="922" cy="266" r="2.1" fill="#ff6ec7" opacity="0.1"/><circle cx="963" cy="266" r="2" fill="#ff6ec7" opacity="0.1"/><circle cx="1004" cy="266" r="2" fill="#ff6ec7" opacity="0.1"/><circle cx="1045" cy="266" r="1.9" fill="#ff6ec7" opacity="0.1"/><circle cx="1086" cy="266" r="1.9" fill="#ff6ec7" opacity="0.1"/><circle cx="1127" cy="266" r="1.9" fill="#ff6ec7" opacity="0.1"/><circle cx="1168" cy="266" r="1.8" fill="#ff6ec7" opacity="0.1"/><circle cx="1209" cy="266" r="1.8" fill="#ff6ec7" opacity="0.1"/><circle cx="20" cy="307" r="3" fill="#ff6ec7" opacity="0.2"/><circle cx="61" cy="307" r="3" fill="#ff6ec7" opacity="0.2"/><circle cx="102" cy="307" r="3" fill="#ff6ec7" opacity="0.2"/><circle cx="143" cy="307" r="2.9" fill="#ff6ec7" opacity="0.2"/><circle cx="184" cy="307" r="2.9" fill="#ff6ec7" opacity="0.2"/><circle cx="225" cy="307" r="2.8" fill="#ff6ec7" opacity="0.2"/><circle cx="266" cy="307" r="2.8" fill="#ff6ec7" opacity="0.2"/><circle cx="307" cy="307" r="2.8" fill="#ff6ec7" opacity="0.2"/><circle cx="348" cy="307" r="2.7" fill="#ff6ec7" opacity="0.2"/><circle cx="389" cy="307" r="2.7" fill="#ff6ec7" opacity="0.2"/><circle cx="430" cy="307" r="2.6" fill="#ff6ec7" opacity="0.2"/><circle cx="471" cy="307" r="2.6" fill="#ff6ec7" opacity="0.2"/><circle cx="512" cy="307" r="2.5" fill="#ff6ec7" opacity="0.2"/><circle cx="553" cy="307" r="2.5" fill="#ff6ec7" opacity="0.2"/><circle cx="594" cy="307" r="2.5" fill="#ff6ec7" opacity="0.2"/><circle cx="635" cy="307" r="2.4" fill="#ff6ec7" opacity="0.1"/><circle cx="676" cy="307" r="2.4" fill="#ff6ec7" opacity="0.1"/><circle cx="717" cy="307" r="2.3" fill="#ff6ec7" opacity="0.1"/><circle cx="758" cy="307" r="2.3" fill="#ff6ec7" opacity="0.1"/><circle cx="799" cy="307" r="2.3" fill="#ff6ec7" opacity="0.1"/><circle cx="840" cy="307" r="2.2" fill="#ff6ec7" opacity="0.1"/><circle cx="881" cy="307" r="2.2" fill="#ff6ec7" opacity="0.1"/><circle cx="922" cy="307" r="2.1" fill="#ff6ec7" opacity="0.1"/><circle cx="963" cy="307" r="2.1" fill="#ff6ec7" opacity="0.1"/><circle cx="1004" cy="307" r="2" fill="#ff6ec7" opacity="0.1"/><circle cx="1045" cy="307" r="2" fill="#ff6ec7" opacity="0.1"/><circle cx="1086" cy="307" r="2" fill="#ff6ec7" opacity="0.1"/><circle cx="1127" cy="307" r="1.9" fill="#ff6ec7" opacity="0.1"/><circle cx="1168" cy="307" r="1.9" fill="#ff6ec7" opacity="0.1"/><circle cx="1209" cy="307" r="1.8" fill="#ff6ec7" opacity="0.1"/><circle cx="20" cy="348" r="3.1" fill="#ff6ec7" opacity="0.2"/><circle cx="61" cy="348" r="3.1" fill="#ff6ec7" opacity="0.2"/><circle cx="102" cy="348" r="3" fill="#ff6ec7" opacity="0.2"/><circle cx="143" cy="348" r="3" fill="#ff6ec7" opacity="0.2"/><circle cx="184" cy="348" r="2.9" fill="#ff6ec7" opacity="0.2"/><circle cx="225" cy="348" r="2.9" fill="#ff6ec7" opacity="0.2"/><circle cx="266" cy="348" r="2.9" fill="#ff6ec7" opacity="0.2"/><circle cx="307" cy="348" r="2.8" fill="#ff6ec7" opacity="0.2"/><circle cx="348" cy="348" r="2.8" fill="#ff6ec7" opacity="0.2"/><circle cx="389" cy="348" r="2.7" fill="#ff6ec7" opacity="0.2"/><circle cx="430" cy="348" r="2.7" fill="#ff6ec7" opacity="0.2"/><circle cx="471" cy="348" r="2.6" fill="#ff6ec7" opacity="0.2"/><circle cx="512" cy="348" r="2.6" fill="#ff6ec7" opacity="0.2"/><circle cx="553" cy="348" r="2.6" fill="#ff6ec7" opacity="0.2"/><circle cx="594" cy="348" r="2.5" fill="#ff6ec7" opacity="0.2"/><circle cx="635" cy="348" r="2.5" fill="#ff6ec7" opacity="0.2"/><circle cx="676" cy="348" r="2.4" fill="#ff6ec7" opacity="0.2"/><circle cx="717" cy="348" r="2.4" fill="#ff6ec7" opacity="0.1"/><circle cx="758" cy="348" r="2.4" fill="#ff6ec7" opacity="0.1"/><circle cx="799" cy="348" r="2.3" fill="#ff6ec7" opacity="0.1"/><circle cx="840" cy="348" r="2.3" fill="#ff6ec7" opacity="0.1"/><circle cx="881" cy="348" r="2.2" fill="#ff6ec7" opacity="0.1"/><circle cx="922" cy="348" r="2.2" fill="#ff6ec7" opacity="0.1"/><circle cx="963" cy="348" r="2.1" fill="#ff6ec7" opacity="0.1"/><circle cx="1004" cy="348" r="2.1" fill="#ff6ec7" opacity="0.1"/><circle cx="1045" cy="348" r="2.1" fill="#ff6ec7" opacity="0.1"/><circle cx="1086" cy="348" r="2" fill="#ff6ec7" opacity="0.1"/><circle cx="1127" cy="348" r="2" fill="#ff6ec7" opacity="0.1"/><circle cx="1168" cy="348" r="1.9" fill="#ff6ec7" opacity="0.1"/><circle cx="1209" cy="348" r="1.9" fill="#ff6ec7" opacity="0.1"/><circle cx="20" cy="389" r="3.2" fill="#ff6ec7" opacity="0.3"/><circle cx="61" cy="389" r="3.1" fill="#ff6ec7" opacity="0.3"/><circle cx="102" cy="389" r="3.1" fill="#ff6ec7" opacity="0.2"/><circle cx="143" cy="389" r="3" fill="#ff6ec7" opacity="0.2"/><circle cx="184" cy="389" r="3" fill="#ff6ec7" opacity="0.2"/><circle cx="225" cy="389" r="3" fill="#ff6ec7" opacity="0.2"/><circle cx="266" cy="389" r="2.9" fill="#ff6ec7" opacity="0.2"/><circle cx="307" cy="389" r="2.9" fill="#ff6ec7" opacity="0.2"/><circle cx="348" cy="389" r="2.8" fill="#ff6ec7" opacity="0.2"/><circle cx="389" cy="389" r="2.8" fill="#ff6ec7" opacity="0.2"/><circle cx="430" cy="389" r="2.7" fill="#ff6ec7" opacity="0.2"/><circle cx="471" cy="389" r="2.7" fill="#ff6ec7" opacity="0.2"/><circle cx="512" cy="389" r="2.7" fill="#ff6ec7" opacity="0.2"/><circle cx="553" cy="389" r="2.6" fill="#ff6ec7" opacity="0.2"/><circle cx="594" cy="389" r="2.6" fill="#ff6ec7" opacity="0.2"/><circle cx="635" cy="389" r="2.5" fill="#ff6ec7" opacity="0.2"/><circle cx="676" cy="389" r="2.5" fill="#ff6ec7" opacity="0.2"/><circle cx="717" cy="389" r="2.5" fill="#ff6ec7" opacity="0.2"/><circle cx="758" cy="389" r="2.4" fill="#ff6ec7" opacity="0.1"/><circle cx="799" cy="389" r="2.4" fill="#ff6ec7" opacity="0.1"/><circle cx="840" cy="389" r="2.3" fill="#ff6ec7" opacity="0.1"/><circle cx="881" cy="389" r="2.3" fill="#ff6ec7" opacity="0.1"/><circle cx="922" cy="389" r="2.3" fill="#ff6ec7" opacity="0.1"/><circle cx="963" cy="389" r="2.2" fill="#ff6ec7" opacity="0.1"/><circle cx="1004" cy="389" r="2.2" fill="#ff6ec7" opacity="0.1"/><circle cx="1045" cy="389" r="2.1" fill="#ff6ec7" opacity="0.1"/><circle cx="1086" cy="389" r="2.1" fill="#ff6ec7" opacity="0.1"/><circle cx="1127" cy="389" r="2" fill="#ff6ec7" opacity="0.1"/><circle cx="1168" cy="389" r="2" fill="#ff6ec7" opacity="0.1"/><circle cx="1209" cy="389" r="2" fill="#ff6ec7" opacity="0.1"/><circle cx="20" cy="430" r="3.2" fill="#ff6ec7" opacity="0.3"/><circle cx="61" cy="430" r="3.2" fill="#ff6ec7" opacity="0.3"/><circle cx="102" cy="430" r="3.1" fill="#ff6ec7" opacity="0.3"/><circle cx="143" cy="430" r="3.1" fill="#ff6ec7" opacity="0.2"/><circle cx="184" cy="430" r="3.1" fill="#ff6ec7" opacity="0.2"/><circle cx="225" cy="430" r="3" fill="#ff6ec7" opacity="0.2"/><circle cx="266" cy="430" r="3" fill="#ff6ec7" opacity="0.2"/><circle cx="307" cy="430" r="2.9" fill="#ff6ec7" opacity="0.2"/><circle cx="348" cy="430" r="2.9" fill="#ff6ec7" opacity="0.2"/><circle cx="389" cy="430" r="2.8" fill="#ff6ec7" opacity="0.2"/><circle cx="430" cy="430" r="2.8" fill="#ff6ec7" opacity="0.2"/><circle cx="471" cy="430" r="2.8" fill="#ff6ec7" opacity="0.2"/><circle cx="512" cy="430" r="2.7" fill="#ff6ec7" opacity="0.2"/><circle cx="553" cy="430" r="2.7" fill="#ff6ec7" opacity="0.2"/><circle cx="594" cy="430" r="2.6" fill="#ff6ec7" opacity="0.2"/><circle cx="635" cy="430" r="2.6" fill="#ff6ec7" opacity="0.2"/><circle cx="676" cy="430" r="2.6" fill="#ff6ec7" opacity="0.2"/><circle cx="717" cy="430" r="2.5" fill="#ff6ec7" opacity="0.2"/><circle cx="758" cy="430" r="2.5" fill="#ff6ec7" opacity="0.2"/><circle cx="799" cy="430" r="2.4" fill="#ff6ec7" opacity="0.2"/><circle cx="840" cy="430" r="2.4" fill="#ff6ec7" opacity="0.1"/><circle cx="881" cy="430" r="2.4" fill="#ff6ec7" opacity="0.1"/><circle cx="922" cy="430" r="2.3" fill="#ff6ec7" opacity="0.1"/><circle cx="963" cy="430" r="2.3" fill="#ff6ec7" opacity="0.1"/><circle cx="1004" cy="430" r="2.2" fill="#ff6ec7" opacity="0.1"/><circle cx="1045" cy="430" r="2.2" fill="#ff6ec7" opacity="0.1"/><circle cx="1086" cy="430" r="2.1" fill="#ff6ec7" opacity="0.1"/><circle cx="1127" cy="430" r="2.1" fill="#ff6ec7" opacity="0.1"/><circle cx="1168" cy="430" r="2.1" fill="#ff6ec7" opacity="0.1"/><circle cx="1209" cy="430" r="2" fill="#ff6ec7" opacity="0.1"/><circle cx="20" cy="471" r="3.3" fill="#ff6ec7" opacity="0.3"/><circle cx="61" cy="471" r="3.2" fill="#ff6ec7" opacity="0.3"/><circle cx="102" cy="471" r="3.2" fill="#ff6ec7" opacity="0.3"/><circle cx="143" cy="471" r="3.2" fill="#ff6ec7" opacity="0.3"/><circle cx="184" cy="471" r="3.1" fill="#ff6ec7" opacity="0.2"/><circle cx="225" cy="471" r="3.1" fill="#ff6ec7" opacity="0.2"/><circle cx="266" cy="471" r="3" fill="#ff6ec7" opacity="0.2"/><circle cx="307" cy="471" r="3" fill="#ff6ec7" opacity="0.2"/><circle cx="348" cy="471" r="2.9" fill="#ff6ec7" opacity="0.2"/><circle cx="389" cy="471" r="2.9" fill="#ff6ec7" opacity="0.2"/><circle cx="430" cy="471" r="2.9" fill="#ff6ec7" opacity="0.2"/><circle cx="471" cy="471" r="2.8" fill="#ff6ec7" opacity="0.2"/><circle cx="512" cy="471" r="2.8" fill="#ff6ec7" opacity="0.2"/><circle cx="553" cy="471" r="2.7" fill="#ff6ec7" opacity="0.2"/><circle cx="594" cy="471" r="2.7" fill="#ff6ec7" opacity="0.2"/><circle cx="635" cy="471" r="2.7" fill="#ff6ec7" opacity="0.2"/><circle cx="676" cy="471" r="2.6" fill="#ff6ec7" opacity="0.2"/><circle cx="717" cy="471" r="2.6" fill="#ff6ec7" opacity="0.2"/><circle cx="758" cy="471" r="2.5" fill="#ff6ec7" opacity="0.2"/><circle cx="799" cy="471" r="2.5" fill="#ff6ec7" opacity="0.2"/><circle cx="840" cy="471" r="2.5" fill="#ff6ec7" opacity="0.2"/><circle cx="881" cy="471" r="2.4" fill="#ff6ec7" opacity="0.1"/><circle cx="922" cy="471" r="2.4" fill="#ff6ec7" opacity="0.1"/><circle cx="963" cy="471" r="2.3" fill="#ff6ec7" opacity="0.1"/><circle cx="1004" cy="471" r="2.3" fill="#ff6ec7" opacity="0.1"/><circle cx="1045" cy="471" r="2.2" fill="#ff6ec7" opacity="0.1"/><circle cx="1086" cy="471" r="2.2" fill="#ff6ec7" opacity="0.1"/><circle cx="1127" cy="471" r="2.2" fill="#ff6ec7" opacity="0.1"/><circle cx="1168" cy="471" r="2.1" fill="#ff6ec7" opacity="0.1"/><circle cx="1209" cy="471" r="2.1" fill="#ff6ec7" opacity="0.1"/><circle cx="20" cy="512" r="3.3" fill="#ff6ec7" opacity="0.3"/><circle cx="61" cy="512" r="3.3" fill="#ff6ec7" opacity="0.3"/><circle cx="102" cy="512" r="3.3" fill="#ff6ec7" opacity="0.3"/><circle cx="143" cy="512" r="3.2" fill="#ff6ec7" opacity="0.3"/><circle cx="184" cy="512" r="3.2" fill="#ff6ec7" opacity="0.3"/><circle cx="225" cy="512" r="3.1" fill="#ff6ec7" opacity="0.3"/><circle cx="266" cy="512" r="3.1" fill="#ff6ec7" opacity="0.2"/><circle cx="307" cy="512" r="3.1" fill="#ff6ec7" opacity="0.2"/><circle cx="348" cy="512" r="3" fill="#ff6ec7" opacity="0.2"/><circle cx="389" cy="512" r="3" fill="#ff6ec7" opacity="0.2"/><circle cx="430" cy="512" r="2.9" fill="#ff6ec7" opacity="0.2"/><circle cx="471" cy="512" r="2.9" fill="#ff6ec7" opacity="0.2"/><circle cx="512" cy="512" r="2.8" fill="#ff6ec7" opacity="0.2"/><circle cx="553" cy="512" r="2.8" fill="#ff6ec7" opacity="0.2"/><circle cx="594" cy="512" r="2.8" fill="#ff6ec7" opacity="0.2"/><circle cx="635" cy="512" r="2.7" fill="#ff6ec7" opacity="0.2"/><circle cx="676" cy="512" r="2.7" fill="#ff6ec7" opacity="0.2"/><circle cx="717" cy="512" r="2.6" fill="#ff6ec7" opacity="0.2"/><circle cx="758" cy="512" r="2.6" fill="#ff6ec7" opacity="0.2"/><circle cx="799" cy="512" r="2.6" fill="#ff6ec7" opacity="0.2"/><circle cx="840" cy="512" r="2.5" fill="#ff6ec7" opacity="0.2"/><circle cx="881" cy="512" r="2.5" fill="#ff6ec7" opacity="0.2"/><circle cx="922" cy="512" r="2.4" fill="#ff6ec7" opacity="0.1"/><circle cx="963" cy="512" r="2.4" fill="#ff6ec7" opacity="0.1"/><circle cx="1004" cy="512" r="2.3" fill="#ff6ec7" opacity="0.1"/><circle cx="1045" cy="512" r="2.3" fill="#ff6ec7" opacity="0.1"/><circle cx="1086" cy="512" r="2.3" fill="#ff6ec7" opacity="0.1"/><circle cx="1127" cy="512" r="2.2" fill="#ff6ec7" opacity="0.1"/><circle cx="1168" cy="512" r="2.2" fill="#ff6ec7" opacity="0.1"/><circle cx="1209" cy="512" r="2.1" fill="#ff6ec7" opacity="0.1"/><circle cx="20" cy="553" r="3.4" fill="#ff6ec7" opacity="0.3"/><circle cx="61" cy="553" r="3.4" fill="#ff6ec7" opacity="0.3"/><circle cx="102" cy="553" r="3.3" fill="#ff6ec7" opacity="0.3"/><circle cx="143" cy="553" r="3.3" fill="#ff6ec7" opacity="0.3"/><circle cx="184" cy="553" r="3.2" fill="#ff6ec7" opacity="0.3"/><circle cx="225" cy="553" r="3.2" fill="#ff6ec7" opacity="0.3"/><circle cx="266" cy="553" r="3.2" fill="#ff6ec7" opacity="0.3"/><circle cx="307" cy="553" r="3.1" fill="#ff6ec7" opacity="0.2"/><circle cx="348" cy="553" r="3.1" fill="#ff6ec7" opacity="0.2"/><circle cx="389" cy="553" r="3" fill="#ff6ec7" opacity="0.2"/><circle cx="430" cy="553" r="3" fill="#ff6ec7" opacity="0.2"/><circle cx="471" cy="553" r="2.9" fill="#ff6ec7" opacity="0.2"/><circle cx="512" cy="553" r="2.9" fill="#ff6ec7" opacity="0.2"/><circle cx="553" cy="553" r="2.9" fill="#ff6ec7" opacity="0.2"/><circle cx="594" cy="553" r="2.8" fill="#ff6ec7" opacity="0.2"/><circle cx="635" cy="553" r="2.8" fill="#ff6ec7" opacity="0.2"/><circle cx="676" cy="553" r="2.7" fill="#ff6ec7" opacity="0.2"/><circle cx="717" cy="553" r="2.7" fill="#ff6ec7" opacity="0.2"/><circle cx="758" cy="553" r="2.7" fill="#ff6ec7" opacity="0.2"/><circle cx="799" cy="553" r="2.6" fill="#ff6ec7" opacity="0.2"/><circle cx="840" cy="553" r="2.6" fill="#ff6ec7" opacity="0.2"/><circle cx="881" cy="553" r="2.5" fill="#ff6ec7" opacity="0.2"/><circle cx="922" cy="553" r="2.5" fill="#ff6ec7" opacity="0.2"/><circle cx="963" cy="553" r="2.5" fill="#ff6ec7" opacity="0.2"/><circle cx="1004" cy="553" r="2.4" fill="#ff6ec7" opacity="0.1"/><circle cx="1045" cy="553" r="2.4" fill="#ff6ec7" opacity="0.1"/><circle cx="1086" cy="553" r="2.3" fill="#ff6ec7" opacity="0.1"/><circle cx="1127" cy="553" r="2.3" fill="#ff6ec7" opacity="0.1"/><circle cx="1168" cy="553" r="2.2" fill="#ff6ec7" opacity="0.1"/><circle cx="1209" cy="553" r="2.2" fill="#ff6ec7" opacity="0.1"/><circle cx="20" cy="594" r="3.5" fill="#ff6ec7" opacity="0.3"/><circle cx="61" cy="594" r="3.4" fill="#ff6ec7" opacity="0.3"/><circle cx="102" cy="594" r="3.4" fill="#ff6ec7" opacity="0.3"/><circle cx="143" cy="594" r="3.3" fill="#ff6ec7" opacity="0.3"/><circle cx="184" cy="594" r="3.3" fill="#ff6ec7" opacity="0.3"/><circle cx="225" cy="594" r="3.3" fill="#ff6ec7" opacity="0.3"/><circle cx="266" cy="594" r="3.2" fill="#ff6ec7" opacity="0.3"/><circle cx="307" cy="594" r="3.2" fill="#ff6ec7" opacity="0.3"/><circle cx="348" cy="594" r="3.1" fill="#ff6ec7" opacity="0.3"/><circle cx="389" cy="594" r="3.1" fill="#ff6ec7" opacity="0.2"/><circle cx="430" cy="594" r="3" fill="#ff6ec7" opacity="0.2"/><circle cx="471" cy="594" r="3" fill="#ff6ec7" opacity="0.2"/><circle cx="512" cy="594" r="3" fill="#ff6ec7" opacity="0.2"/><circle cx="553" cy="594" r="2.9" fill="#ff6ec7" opacity="0.2"/><circle cx="594" cy="594" r="2.9" fill="#ff6ec7" opacity="0.2"/><circle cx="635" cy="594" r="2.8" fill="#ff6ec7" opacity="0.2"/><circle cx="676" cy="594" r="2.8" fill="#ff6ec7" opacity="0.2"/><circle cx="717" cy="594" r="2.8" fill="#ff6ec7" opacity="0.2"/><circle cx="758" cy="594" r="2.7" fill="#ff6ec7" opacity="0.2"/><circle cx="799" cy="594" r="2.7" fill="#ff6ec7" opacity="0.2"/><circle cx="840" cy="594" r="2.6" fill="#ff6ec7" opacity="0.2"/><circle cx="881" cy="594" r="2.6" fill="#ff6ec7" opacity="0.2"/><circle cx="922" cy="594" r="2.6" fill="#ff6ec7" opacity="0.2"/><circle cx="963" cy="594" r="2.5" fill="#ff6ec7" opacity="0.2"/><circle cx="1004" cy="594" r="2.5" fill="#ff6ec7" opacity="0.2"/><circle cx="1045" cy="594" r="2.4" fill="#ff6ec7" opacity="0.1"/><circle cx="1086" cy="594" r="2.4" fill="#ff6ec7" opacity="0.1"/><circle cx="1127" cy="594" r="2.3" fill="#ff6ec7" opacity="0.1"/><circle cx="1168" cy="594" r="2.3" fill="#ff6ec7" opacity="0.1"/><circle cx="1209" cy="594" r="2.3" fill="#ff6ec7" opacity="0.1"/><circle cx="20" cy="635" r="3.5" fill="#ff6ec7" opacity="0.3"/><circle cx="61" cy="635" r="3.5" fill="#ff6ec7" opacity="0.3"/><circle cx="102" cy="635" r="3.4" fill="#ff6ec7" opacity="0.3"/><circle cx="143" cy="635" r="3.4" fill="#ff6ec7" opacity="0.3"/><circle cx="184" cy="635" r="3.4" fill="#ff6ec7" opacity="0.3"/><circle cx="225" cy="635" r="3.3" fill="#ff6ec7" opacity="0.3"/><circle cx="266" cy="635" r="3.3" fill="#ff6ec7" opacity="0.3"/><circle cx="307" cy="635" r="3.2" fill="#ff6ec7" opacity="0.3"/><circle cx="348" cy="635" r="3.2" fill="#ff6ec7" opacity="0.3"/><circle cx="389" cy="635" r="3.1" fill="#ff6ec7" opacity="0.3"/><circle cx="430" cy="635" r="3.1" fill="#ff6ec7" opacity="0.2"/><circle cx="471" cy="635" r="3.1" fill="#ff6ec7" opacity="0.2"/><circle cx="512" cy="635" r="3" fill="#ff6ec7" opacity="0.2"/><circle cx="553" cy="635" r="3" fill="#ff6ec7" opacity="0.2"/><circle cx="594" cy="635" r="2.9" fill="#ff6ec7" opacity="0.2"/><circle cx="635" cy="635" r="2.9" fill="#ff6ec7" opacity="0.2"/><circle cx="676" cy="635" r="2.9" fill="#ff6ec7" opacity="0.2"/><circle cx="717" cy="635" r="2.8" fill="#ff6ec7" opacity="0.2"/><circle cx="758" cy="635" r="2.8" fill="#ff6ec7" opacity="0.2"/><circle cx="799" cy="635" r="2.7" fill="#ff6ec7" opacity="0.2"/><circle cx="840" cy="635" r="2.7" fill="#ff6ec7" opacity="0.2"/><circle cx="881" cy="635" r="2.7" fill="#ff6ec7" opacity="0.2"/><circle cx="922" cy="635" r="2.6" fill="#ff6ec7" opacity="0.2"/><circle cx="963" cy="635" r="2.6" fill="#ff6ec7" opacity="0.2"/><circle cx="1004" cy="635" r="2.5" fill="#ff6ec7" opacity="0.2"/><circle cx="1045" cy="635" r="2.5" fill="#ff6ec7" opacity="0.2"/><circle cx="1086" cy="635" r="2.4" fill="#ff6ec7" opacity="0.2"/><circle cx="1127" cy="635" r="2.4" fill="#ff6ec7" opacity="0.1"/><circle cx="1168" cy="635" r="2.4" fill="#ff6ec7" opacity="0.1"/><circle cx="1209" cy="635" r="2.3" fill="#ff6ec7" opacity="0.1"/><circle cx="20" cy="676" r="3.6" fill="#ff6ec7" opacity="0.3"/><circle cx="61" cy="676" r="3.5" fill="#ff6ec7" opacity="0.3"/><circle cx="102" cy="676" r="3.5" fill="#ff6ec7" opacity="0.3"/><circle cx="143" cy="676" r="3.5" fill="#ff6ec7" opacity="0.3"/><circle cx="184" cy="676" r="3.4" fill="#ff6ec7" opacity="0.3"/><circle cx="225" cy="676" r="3.4" fill="#ff6ec7" opacity="0.3"/><circle cx="266" cy="676" r="3.3" fill="#ff6ec7" opacity="0.3"/><circle cx="307" cy="676" r="3.3" fill="#ff6ec7" opacity="0.3"/><circle cx="348" cy="676" r="3.3" fill="#ff6ec7" opacity="0.3"/><circle cx="389" cy="676" r="3.2" fill="#ff6ec7" opacity="0.3"/><circle cx="430" cy="676" r="3.2" fill="#ff6ec7" opacity="0.3"/><circle cx="471" cy="676" r="3.1" fill="#ff6ec7" opacity="0.3"/><circle cx="512" cy="676" r="3.1" fill="#ff6ec7" opacity="0.2"/><circle cx="553" cy="676" r="3" fill="#ff6ec7" opacity="0.2"/><circle cx="594" cy="676" r="3" fill="#ff6ec7" opacity="0.2"/><circle cx="635" cy="676" r="3" fill="#ff6ec7" opacity="0.2"/><circle cx="676" cy="676" r="2.9" fill="#ff6ec7" opacity="0.2"/><circle cx="717" cy="676" r="2.9" fill="#ff6ec7" opacity="0.2"/><circle cx="758" cy="676" r="2.8" fill="#ff6ec7" opacity="0.2"/><circle cx="799" cy="676" r="2.8" fill="#ff6ec7" opacity="0.2"/><circle cx="840" cy="676" r="2.8" fill="#ff6ec7" opacity="0.2"/><circle cx="881" cy="676" r="2.7" fill="#ff6ec7" opacity="0.2"/><circle cx="922" cy="676" r="2.7" fill="#ff6ec7" opacity="0.2"/><circle cx="963" cy="676" r="2.6" fill="#ff6ec7" opacity="0.2"/><circle cx="1004" cy="676" r="2.6" fill="#ff6ec7" opacity="0.2"/><circle cx="1045" cy="676" r="2.5" fill="#ff6ec7" opacity="0.2"/><circle cx="1086" cy="676" r="2.5" fill="#ff6ec7" opacity="0.2"/><circle cx="1127" cy="676" r="2.5" fill="#ff6ec7" opacity="0.2"/><circle cx="1168" cy="676" r="2.4" fill="#ff6ec7" opacity="0.1"/><circle cx="1209" cy="676" r="2.4" fill="#ff6ec7" opacity="0.1"/><rect width="1200" height="675" fill="url(#bloom)"/><g transform="translate(-74 -18) translate(600 337.5) scale(0.86) translate(-600 -337.5)"><rect x="338" y="170" width="124" height="212" rx="62" fill="none" stroke="#9d4edd" stroke-width="18" opacity="0.16"/><rect x="338" y="170" width="124" height="212" rx="62" fill="none" stroke="#9d4edd" stroke-width="6"/><line x1="356" y1="202" x2="444" y2="202" stroke="#9d4edd" stroke-width="4" opacity="0.55"/><line x1="356" y1="228" x2="444" y2="228" stroke="#9d4edd" stroke-width="4" opacity="0.55"/><line x1="356" y1="254" x2="444" y2="254" stroke="#9d4edd" stroke-width="4" opacity="0.55"/><line x1="356" y1="280" x2="444" y2="280" stroke="#9d4edd" stroke-width="4" opacity="0.55"/><line x1="356" y1="306" x2="444" y2="306" stroke="#9d4edd" stroke-width="4" opacity="0.55"/><line x1="356" y1="332" x2="444" y2="332" stroke="#9d4edd" stroke-width="4" opacity="0.55"/><line x1="356" y1="358" x2="444" y2="358" stroke="#9d4edd" stroke-width="4" opacity="0.55"/><path d="M503 366.5 A104 104 0 0 1 297 366.5" fill="none" stroke="#ff6ec7" stroke-width="19.2" stroke-linecap="round" stroke-linejoin="round" opacity="0.1"/><path d="M503 366.5 A104 104 0 0 1 297 366.5" fill="none" stroke="#ff6ec7" stroke-width="11.4" stroke-linecap="round" stroke-linejoin="round" opacity="0.3"/><path d="M503 366.5 A104 104 0 0 1 297 366.5" fill="none" stroke="#ff6ec7" stroke-width="6" stroke-linecap="round" stroke-linejoin="round" opacity="0.9"/><path d="M400 456 L400 516" fill="none" stroke="#ff6ec7" stroke-width="19.2" stroke-linecap="round" stroke-linejoin="round" opacity="0.1"/><path d="M400 456 L400 516" fill="none" stroke="#ff6ec7" stroke-width="11.4" stroke-linecap="round" stroke-linejoin="round" opacity="0.3"/><path d="M400 456 L400 516" fill="none" stroke="#ff6ec7" stroke-width="6" stroke-linecap="round" stroke-linejoin="round" opacity="0.9"/><path d="M326 518 L474 518" fill="none" stroke="#ff6ec7" stroke-width="25.6" stroke-linecap="round" stroke-linejoin="round" opacity="0.1"/><path d="M326 518 L474 518" fill="none" stroke="#ff6ec7" stroke-width="15.2" stroke-linecap="round" stroke-linejoin="round" opacity="0.3"/><path d="M326 518 L474 518" fill="none" stroke="#ff6ec7" stroke-width="8" stroke-linecap="round" stroke-linejoin="round" opacity="0.9"/><rect x="596" y="330" width="9" height="20" rx="4.5" fill="#9d4edd" opacity="0.6"/><rect x="617" y="302.3" width="9" height="75.3" rx="4.5" fill="#ff6ec7" opacity="0.7"/><rect x="638" y="281" width="9" height="118" rx="4.5" fill="#ff6ec7" opacity="0.7"/><rect x="659" y="288.4" width="9" height="103.2" rx="4.5" fill="#9d4edd" opacity="0.9"/><rect x="680" y="319.2" width="9" height="41.5" rx="4.5" fill="#ff6ec7" opacity="0.9"/><rect x="701" y="309.1" width="9" height="61.7" rx="4.5" fill="#ff6ec7" opacity="0.6"/><rect x="722" y="293.9" width="9" height="92.1" rx="4.5" fill="#9d4edd" opacity="0.9"/><rect x="743" y="266.7" width="9" height="146.5" rx="4.5" fill="#ff6ec7" opacity="0.7"/><rect x="764" y="294.1" width="9" height="91.8" rx="4.5" fill="#ff6ec7" opacity="0.8"/><rect x="785" y="318.1" width="9" height="43.8" rx="4.5" fill="#9d4edd" opacity="0.7"/><rect x="806" y="302" width="9" height="76" rx="4.5" fill="#ff6ec7" opacity="0.7"/><rect x="827" y="276.8" width="9" height="126.5" rx="4.5" fill="#ff6ec7" opacity="0.9"/><rect x="848" y="292.2" width="9" height="95.6" rx="4.5" fill="#9d4edd" opacity="0.8"/><rect x="869" y="326.3" width="9" height="27.4" rx="4.5" fill="#ff6ec7" opacity="0.8"/><rect x="890" y="297.9" width="9" height="84.3" rx="4.5" fill="#ff6ec7" opacity="0.6"/><rect x="911" y="269.3" width="9" height="141.5" rx="4.5" fill="#9d4edd" opacity="0.7"/><rect x="932" y="279.3" width="9" height="121.3" rx="4.5" fill="#ff6ec7" opacity="0.6"/><rect x="953" y="314.7" width="9" height="50.5" rx="4.5" fill="#ff6ec7" opacity="0.6"/><rect x="974" y="307.6" width="9" height="64.8" rx="4.5" fill="#9d4edd" opacity="0.7"/><rect x="995" y="268.5" width="9" height="143" rx="4.5" fill="#ff6ec7" opacity="0.8"/><rect x="1016" y="273.2" width="9" height="133.6" rx="4.5" fill="#ff6ec7" opacity="0.9"/><rect x="1037" y="303.3" width="9" height="73.3" rx="4.5" fill="#9d4edd" opacity="0.8"/><rect x="1058" y="321.4" width="9" height="37.2" rx="4.5" fill="#ff6ec7" opacity="0.6"/></g><rect width="1200" height="675" fill="url(#vignette)"/><rect width="1200" height="675" fill="url(#scan)"/><g opacity="0.22" transform="translate(1116 596)"><circle r="23" fill="none" stroke="#ff6ec7" stroke-width="2.5"/><circle r="14" fill="none" stroke="#ff6ec7" stroke-width="1.8" opacity="0.6"/><circle r="4.5" fill="#9d4edd"/></g></svg>